<svg xmlns="http://www.w3.org/2000/svg" viewBox="0 0 1600 900" width="1600" height="900">
<defs>
<linearGradient id="bg" x1="0" y1="0" x2="1" y2="1">
  <stop offset="0" stop-color="#0a1f38"/><stop offset="0.55" stop-color="#0b2540"/><stop offset="1" stop-color="#0d3a66"/>
</linearGradient>
<radialGradient id="glow" cx="0.5" cy="0.5" r="0.5">
  <stop offset="0" stop-color="#0a7ef0" stop-opacity="0.55"/><stop offset="1" stop-color="#0a7ef0" stop-opacity="0"/>
</radialGradient>
<radialGradient id="glowCyan" cx="0.5" cy="0.5" r="0.5">
  <stop offset="0" stop-color="#6fc6ff" stop-opacity="0.5"/><stop offset="1" stop-color="#6fc6ff" stop-opacity="0"/>
</radialGradient>
<radialGradient id="glowAmber" cx="0.5" cy="0.5" r="0.5">
  <stop offset="0" stop-color="#f5a623" stop-opacity="0.55"/><stop offset="1" stop-color="#f5a623" stop-opacity="0"/>
</radialGradient>
<linearGradient id="screen" x1="0" y1="0" x2="1" y2="1">
  <stop offset="0" stop-color="#0a6ed1"/><stop offset="1" stop-color="#0a7ef0"/>
</linearGradient>
<linearGradient id="lightbody" x1="0" y1="0" x2="0" y2="1">
  <stop offset="0" stop-color="#f4f6f9"/><stop offset="1" stop-color="#d5e2ef"/>
</linearGradient>
</defs>
<rect width="1600" height="900" fill="url(#bg)"/>
<g><circle cx="100" cy="80" r="2.2" fill="#3d5d80" opacity="0.35"/><circle cx="100" cy="205" r="2.2" fill="#3d5d80" opacity="0.35"/><circle cx="100" cy="330" r="2.2" fill="#3d5d80" opacity="0.35"/><circle cx="100" cy="455" r="2.2" fill="#3d5d80" opacity="0.35"/><circle cx="100" cy="580" r="2.2" fill="#3d5d80" opacity="0.35"/><circle cx="100" cy="705" r="2.2" fill="#3d5d80" opacity="0.35"/><circle cx="100" cy="830" r="2.2" fill="#3d5d80" opacity="0.35"/><circle cx="225" cy="80" r="2.2" fill="#3d5d80" opacity="0.35"/><circle cx="225" cy="205" r="2.2" fill="#3d5d80" opacity="0.35"/><circle cx="225" cy="330" r="2.2" fill="#3d5d80" opacity="0.35"/><circle cx="225" cy="455" r="2.2" fill="#3d5d80" opacity="0.35"/><circle cx="225" cy="580" r="2.2" fill="#3d5d80" opacity="0.35"/><circle cx="225" cy="705" r="2.2" fill="#3d5d80" opacity="0.35"/><circle cx="225" cy="830" r="2.2" fill="#3d5d80" opacity="0.35"/><circle cx="350" cy="80" r="2.2" fill="#3d5d80" opacity="0.35"/><circle cx="350" cy="205" r="2.2" fill="#3d5d80" opacity="0.35"/><circle cx="350" cy="330" r="2.2" fill="#3d5d80" opacity="0.35"/><circle cx="350" cy="455" r="2.2" fill="#3d5d80" opacity="0.35"/><circle cx="350" cy="580" r="2.2" fill="#3d5d80" opacity="0.35"/><circle cx="350" cy="705" r="2.2" fill="#3d5d80" opacity="0.35"/><circle cx="350" cy="830" r="2.2" fill="#3d5d80" opacity="0.35"/><circle cx="475" cy="80" r="2.2" fill="#3d5d80" opacity="0.35"/><circle cx="475" cy="205" r="2.2" fill="#3d5d80" opacity="0.35"/><circle cx="475" cy="330" r="2.2" fill="#3d5d80" opacity="0.35"/><circle cx="475" cy="455" r="2.2" fill="#3d5d80" opacity="0.35"/><circle cx="475" cy="580" r="2.2" fill="#3d5d80" opacity="0.35"/><circle cx="475" cy="705" r="2.2" fill="#3d5d80" opacity="0.35"/><circle cx="475" cy="830" r="2.2" fill="#3d5d80" opacity="0.35"/><circle cx="600" cy="80" r="2.2" fill="#3d5d80" opacity="0.35"/><circle cx="600" cy="205" r="2.2" fill="#3d5d80" opacity="0.35"/><circle cx="600" cy="330" r="2.2" fill="#3d5d80" opacity="0.35"/><circle cx="600" cy="455" r="2.2" fill="#3d5d80" opacity="0.35"/><circle cx="600" cy="580" r="2.2" fill="#3d5d80" opacity="0.35"/><circle cx="600" cy="705" r="2.2" fill="#3d5d80" opacity="0.35"/><circle cx="600" cy="830" r="2.2" fill="#3d5d80" opacity="0.35"/><circle cx="725" cy="80" r="2.2" fill="#3d5d80" opacity="0.35"/><circle cx="725" cy="205" r="2.2" fill="#3d5d80" opacity="0.35"/><circle cx="725" cy="330" r="2.2" fill="#3d5d80" opacity="0.35"/><circle cx="725" cy="455" r="2.2" fill="#3d5d80" opacity="0.35"/><circle cx="725" cy="580" r="2.2" fill="#3d5d80" opacity="0.35"/><circle cx="725" cy="705" r="2.2" fill="#3d5d80" opacity="0.35"/><circle cx="725" cy="830" r="2.2" fill="#3d5d80" opacity="0.35"/><circle cx="850" cy="80" r="2.2" fill="#3d5d80" opacity="0.35"/><circle cx="850" cy="205" r="2.2" fill="#3d5d80" opacity="0.35"/><circle cx="850" cy="330" r="2.2" fill="#3d5d80" opacity="0.35"/><circle cx="850" cy="455" r="2.2" fill="#3d5d80" opacity="0.35"/><circle cx="850" cy="580" r="2.2" fill="#3d5d80" opacity="0.35"/><circle cx="850" cy="705" r="2.2" fill="#3d5d80" opacity="0.35"/><circle cx="850" cy="830" r="2.2" fill="#3d5d80" opacity="0.35"/><circle cx="975" cy="80" r="2.2" fill="#3d5d80" opacity="0.35"/><circle cx="975" cy="205" r="2.2" fill="#3d5d80" opacity="0.35"/><circle cx="975" cy="330" r="2.2" fill="#3d5d80" opacity="0.35"/><circle cx="975" cy="455" r="2.2" fill="#3d5d80" opacity="0.35"/><circle cx="975" cy="580" r="2.2" fill="#3d5d80" opacity="0.35"/><circle cx="975" cy="705" r="2.2" fill="#3d5d80" opacity="0.35"/><circle cx="975" cy="830" r="2.2" fill="#3d5d80" opacity="0.35"/><circle cx="1100" cy="80" r="2.2" fill="#3d5d80" opacity="0.35"/><circle cx="1100" cy="205" r="2.2" fill="#3d5d80" opacity="0.35"/><circle cx="1100" cy="330" r="2.2" fill="#3d5d80" opacity="0.35"/><circle cx="1100" cy="455" r="2.2" fill="#3d5d80" opacity="0.35"/><circle cx="1100" cy="580" r="2.2" fill="#3d5d80" opacity="0.35"/><circle cx="1100" cy="705" r="2.2" fill="#3d5d80" opacity="0.35"/><circle cx="1100" cy="830" r="2.2" fill="#3d5d80" opacity="0.35"/><circle cx="1225" cy="80" r="2.2" fill="#3d5d80" opacity="0.35"/><circle cx="1225" cy="205" r="2.2" fill="#3d5d80" opacity="0.35"/><circle cx="1225" cy="330" r="2.2" fill="#3d5d80" opacity="0.35"/><circle cx="1225" cy="455" r="2.2" fill="#3d5d80" opacity="0.35"/><circle cx="1225" cy="580" r="2.2" fill="#3d5d80" opacity="0.35"/><circle cx="1225" cy="705" r="2.2" fill="#3d5d80" opacity="0.35"/><circle cx="1225" cy="830" r="2.2" fill="#3d5d80" opacity="0.35"/><circle cx="1350" cy="80" r="2.2" fill="#3d5d80" opacity="0.35"/><circle cx="1350" cy="205" r="2.2" fill="#3d5d80" opacity="0.35"/><circle cx="1350" cy="330" r="2.2" fill="#3d5d80" opacity="0.35"/><circle cx="1350" cy="455" r="2.2" fill="#3d5d80" opacity="0.35"/><circle cx="1350" cy="580" r="2.2" fill="#3d5d80" opacity="0.35"/><circle cx="1350" cy="705" r="2.2" fill="#3d5d80" opacity="0.35"/><circle cx="1350" cy="830" r="2.2" fill="#3d5d80" opacity="0.35"/><circle cx="1475" cy="80" r="2.2" fill="#3d5d80" opacity="0.35"/><circle cx="1475" cy="205" r="2.2" fill="#3d5d80" opacity="0.35"/><circle cx="1475" cy="330" r="2.2" fill="#3d5d80" opacity="0.35"/><circle cx="1475" cy="455" r="2.2" fill="#3d5d80" opacity="0.35"/><circle cx="1475" cy="580" r="2.2" fill="#3d5d80" opacity="0.35"/><circle cx="1475" cy="705" r="2.2" fill="#3d5d80" opacity="0.35"/><circle cx="1475" cy="830" r="2.2" fill="#3d5d80" opacity="0.35"/></g>
<ellipse cx="800" cy="560" rx="560" ry="300" fill="url(#glow)"/>
<rect x="240" y="616" width="1120" height="10" rx="5" fill="#d5e2ef" opacity="0.85"/>
<rect x="240" y="632" width="1120" height="150" rx="12" fill="#10202f" opacity="0.45"/>
<g transform="rotate(-32 800 616)">
<rect x="740" y="256" width="120" height="360" rx="60" fill="url(#lightbody)"/>
<g stroke="#9fb4c9" stroke-width="4" opacity="0.5">
<line x1="748" y1="330" x2="852" y2="300"/><line x1="748" y1="380" x2="852" y2="350"/>
<line x1="748" y1="430" x2="852" y2="400"/><line x1="748" y1="480" x2="852" y2="450"/>
<line x1="748" y1="530" x2="852" y2="500"/><line x1="748" y1="580" x2="852" y2="550"/>
</g>
</g>
<g stroke="#6fc6ff" fill="none" stroke-linecap="round">
<circle cx="800" cy="620" r="46" stroke-width="9" opacity="0.9"/>
<circle cx="800" cy="620" r="86" stroke-width="7" opacity="0.5"/>
<circle cx="800" cy="620" r="130" stroke-width="5" opacity="0.25"/>
</g>
<g fill="#6fc6ff">
<circle cx="560" cy="520" r="15" opacity="0.9"/><circle cx="505" cy="575" r="10" opacity="0.6"/>
<circle cx="1075" cy="500" r="12" opacity="0.7"/><circle cx="1135" cy="556" r="8" opacity="0.45"/>
</g>
</svg>