<svg xmlns="http://www.w3.org/2000/svg" viewBox="0 0 1600 900" width="1600" height="900">
<defs>
<linearGradient id="bg" x1="0" y1="0" x2="1" y2="1">
  <stop offset="0" stop-color="#0a1f38"/><stop offset="0.55" stop-color="#0b2540"/><stop offset="1" stop-color="#0d3a66"/>
</linearGradient>
<radialGradient id="glow" cx="0.5" cy="0.5" r="0.5">
  <stop offset="0" stop-color="#0a7ef0" stop-opacity="0.55"/><stop offset="1" stop-color="#0a7ef0" stop-opacity="0"/>
</radialGradient>
<radialGradient id="glowCyan" cx="0.5" cy="0.5" r="0.5">
  <stop offset="0" stop-color="#6fc6ff" stop-opacity="0.5"/><stop offset="1" stop-color="#6fc6ff" stop-opacity="0"/>
</radialGradient>
<radialGradient id="glowAmber" cx="0.5" cy="0.5" r="0.5">
  <stop offset="0" stop-color="#f5a623" stop-opacity="0.55"/><stop offset="1" stop-color="#f5a623" stop-opacity="0"/>
</radialGradient>
<linearGradient id="screen" x1="0" y1="0" x2="1" y2="1">
  <stop offset="0" stop-color="#0a6ed1"/><stop offset="1" stop-color="#0a7ef0"/>
</linearGradient>
<linearGradient id="lightbody" x1="0" y1="0" x2="0" y2="1">
  <stop offset="0" stop-color="#f4f6f9"/><stop offset="1" stop-color="#d5e2ef"/>
</linearGradient>
</defs>
<rect width="1600" height="900" fill="url(#bg)"/>
<g><circle cx="100" cy="80" r="2.2" fill="#3d5d80" opacity="0.35"/><circle cx="100" cy="205" r="2.2" fill="#3d5d80" opacity="0.35"/><circle cx="100" cy="330" r="2.2" fill="#3d5d80" opacity="0.35"/><circle cx="100" cy="455" r="2.2" fill="#3d5d80" opacity="0.35"/><circle cx="100" cy="580" r="2.2" fill="#3d5d80" opacity="0.35"/><circle cx="100" cy="705" r="2.2" fill="#3d5d80" opacity="0.35"/><circle cx="100" cy="830" r="2.2" fill="#3d5d80" opacity="0.35"/><circle cx="225" cy="80" r="2.2" fill="#3d5d80" opacity="0.35"/><circle cx="225" cy="205" r="2.2" fill="#3d5d80" opacity="0.35"/><circle cx="225" cy="330" r="2.2" fill="#3d5d80" opacity="0.35"/><circle cx="225" cy="455" r="2.2" fill="#3d5d80" opacity="0.35"/><circle cx="225" cy="580" r="2.2" fill="#3d5d80" opacity="0.35"/><circle cx="225" cy="705" r="2.2" fill="#3d5d80" opacity="0.35"/><circle cx="225" cy="830" r="2.2" fill="#3d5d80" opacity="0.35"/><circle cx="350" cy="80" r="2.2" fill="#3d5d80" opacity="0.35"/><circle cx="350" cy="205" r="2.2" fill="#3d5d80" opacity="0.35"/><circle cx="350" cy="330" r="2.2" fill="#3d5d80" opacity="0.35"/><circle cx="350" cy="455" r="2.2" fill="#3d5d80" opacity="0.35"/><circle cx="350" cy="580" r="2.2" fill="#3d5d80" opacity="0.35"/><circle cx="350" cy="705" r="2.2" fill="#3d5d80" opacity="0.35"/><circle cx="350" cy="830" r="2.2" fill="#3d5d80" opacity="0.35"/><circle cx="475" cy="80" r="2.2" fill="#3d5d80" opacity="0.35"/><circle cx="475" cy="205" r="2.2" fill="#3d5d80" opacity="0.35"/><circle cx="475" cy="330" r="2.2" fill="#3d5d80" opacity="0.35"/><circle cx="475" cy="455" r="2.2" fill="#3d5d80" opacity="0.35"/><circle cx="475" cy="580" r="2.2" fill="#3d5d80" opacity="0.35"/><circle cx="475" cy="705" r="2.2" fill="#3d5d80" opacity="0.35"/><circle cx="475" cy="830" r="2.2" fill="#3d5d80" opacity="0.35"/><circle cx="600" cy="80" r="2.2" fill="#3d5d80" opacity="0.35"/><circle cx="600" cy="205" r="2.2" fill="#3d5d80" opacity="0.35"/><circle cx="600" cy="330" r="2.2" fill="#3d5d80" opacity="0.35"/><circle cx="600" cy="455" r="2.2" fill="#3d5d80" opacity="0.35"/><circle cx="600" cy="580" r="2.2" fill="#3d5d80" opacity="0.35"/><circle cx="600" cy="705" r="2.2" fill="#3d5d80" opacity="0.35"/><circle cx="600" cy="830" r="2.2" fill="#3d5d80" opacity="0.35"/><circle cx="725" cy="80" r="2.2" fill="#3d5d80" opacity="0.35"/><circle cx="725" cy="205" r="2.2" fill="#3d5d80" opacity="0.35"/><circle cx="725" cy="330" r="2.2" fill="#3d5d80" opacity="0.35"/><circle cx="725" cy="455" r="2.2" fill="#3d5d80" opacity="0.35"/><circle cx="725" cy="580" r="2.2" fill="#3d5d80" opacity="0.35"/><circle cx="725" cy="705" r="2.2" fill="#3d5d80" opacity="0.35"/><circle cx="725" cy="830" r="2.2" fill="#3d5d80" opacity="0.35"/><circle cx="850" cy="80" r="2.2" fill="#3d5d80" opacity="0.35"/><circle cx="850" cy="205" r="2.2" fill="#3d5d80" opacity="0.35"/><circle cx="850" cy="330" r="2.2" fill="#3d5d80" opacity="0.35"/><circle cx="850" cy="455" r="2.2" fill="#3d5d80" opacity="0.35"/><circle cx="850" cy="580" r="2.2" fill="#3d5d80" opacity="0.35"/><circle cx="850" cy="705" r="2.2" fill="#3d5d80" opacity="0.35"/><circle cx="850" cy="830" r="2.2" fill="#3d5d80" opacity="0.35"/><circle cx="975" cy="80" r="2.2" fill="#3d5d80" opacity="0.35"/><circle cx="975" cy="205" r="2.2" fill="#3d5d80" opacity="0.35"/><circle cx="975" cy="330" r="2.2" fill="#3d5d80" opacity="0.35"/><circle cx="975" cy="455" r="2.2" fill="#3d5d80" opacity="0.35"/><circle cx="975" cy="580" r="2.2" fill="#3d5d80" opacity="0.35"/><circle cx="975" cy="705" r="2.2" fill="#3d5d80" opacity="0.35"/><circle cx="975" cy="830" r="2.2" fill="#3d5d80" opacity="0.35"/><circle cx="1100" cy="80" r="2.2" fill="#3d5d80" opacity="0.35"/><circle cx="1100" cy="205" r="2.2" fill="#3d5d80" opacity="0.35"/><circle cx="1100" cy="330" r="2.2" fill="#3d5d80" opacity="0.35"/><circle cx="1100" cy="455" r="2.2" fill="#3d5d80" opacity="0.35"/><circle cx="1100" cy="580" r="2.2" fill="#3d5d80" opacity="0.35"/><circle cx="1100" cy="705" r="2.2" fill="#3d5d80" opacity="0.35"/><circle cx="1100" cy="830" r="2.2" fill="#3d5d80" opacity="0.35"/><circle cx="1225" cy="80" r="2.2" fill="#3d5d80" opacity="0.35"/><circle cx="1225" cy="205" r="2.2" fill="#3d5d80" opacity="0.35"/><circle cx="1225" cy="330" r="2.2" fill="#3d5d80" opacity="0.35"/><circle cx="1225" cy="455" r="2.2" fill="#3d5d80" opacity="0.35"/><circle cx="1225" cy="580" r="2.2" fill="#3d5d80" opacity="0.35"/><circle cx="1225" cy="705" r="2.2" fill="#3d5d80" opacity="0.35"/><circle cx="1225" cy="830" r="2.2" fill="#3d5d80" opacity="0.35"/><circle cx="1350" cy="80" r="2.2" fill="#3d5d80" opacity="0.35"/><circle cx="1350" cy="205" r="2.2" fill="#3d5d80" opacity="0.35"/><circle cx="1350" cy="330" r="2.2" fill="#3d5d80" opacity="0.35"/><circle cx="1350" cy="455" r="2.2" fill="#3d5d80" opacity="0.35"/><circle cx="1350" cy="580" r="2.2" fill="#3d5d80" opacity="0.35"/><circle cx="1350" cy="705" r="2.2" fill="#3d5d80" opacity="0.35"/><circle cx="1350" cy="830" r="2.2" fill="#3d5d80" opacity="0.35"/><circle cx="1475" cy="80" r="2.2" fill="#3d5d80" opacity="0.35"/><circle cx="1475" cy="205" r="2.2" fill="#3d5d80" opacity="0.35"/><circle cx="1475" cy="330" r="2.2" fill="#3d5d80" opacity="0.35"/><circle cx="1475" cy="455" r="2.2" fill="#3d5d80" opacity="0.35"/><circle cx="1475" cy="580" r="2.2" fill="#3d5d80" opacity="0.35"/><circle cx="1475" cy="705" r="2.2" fill="#3d5d80" opacity="0.35"/><circle cx="1475" cy="830" r="2.2" fill="#3d5d80" opacity="0.35"/></g>
<ellipse cx="800" cy="460" rx="600" ry="340" fill="url(#glow)"/>
<circle cx="800" cy="460" r="330" fill="none" stroke="#3d5d80" stroke-width="3" opacity="0.5"/>
<g stroke="#3d5d80" stroke-width="3" opacity="0.55">
<line x1="800" y1="460" x2="800" y2="130"/><line x1="800" y1="460" x2="515" y2="625"/><line x1="800" y1="460" x2="1085" y2="625"/>
</g>
<g>
<rect x="600" y="380" width="400" height="160" rx="80" fill="url(#lightbody)"/>
<ellipse cx="672" cy="558" rx="62" ry="74" fill="url(#lightbody)"/>
<ellipse cx="928" cy="558" rx="62" ry="74" fill="url(#lightbody)"/>
<circle cx="700" cy="450" r="30" fill="#0b2540"/><circle cx="700" cy="450" r="18" fill="#16324f"/>
<circle cx="892" cy="428" r="12" fill="#0a6ed1"/><circle cx="892" cy="472" r="12" fill="#16324f"/>
<circle cx="870" cy="450" r="12" fill="#16324f"/><circle cx="914" cy="450" r="12" fill="#16324f"/>
</g>
<circle cx="800" cy="130" r="64" fill="#0d3a66" stroke="#0a7ef0" stroke-width="5"/>
<rect x="778" y="98" width="44" height="64" rx="22" fill="url(#lightbody)"/>
<circle cx="515" cy="625" r="64" fill="#0d3a66" stroke="#0a7ef0" stroke-width="5"/>
<path d="M488 648 a30 30 0 0 1 24 -48 h22 a14 14 0 0 1 0 28 h-14 a16 16 0 0 0 -14 22 Z" fill="url(#lightbody)"/>
<circle cx="1085" cy="625" r="64" fill="#0d3a66" stroke="#0a7ef0" stroke-width="5"/>
<circle cx="1085" cy="625" r="34" fill="url(#lightbody)"/><circle cx="1085" cy="625" r="18" fill="#0a6ed1"/>
</svg>