<svg xmlns="http://www.w3.org/2000/svg" viewBox="0 0 1600 900" width="1600" height="900">
<defs>
<linearGradient id="bg" x1="0" y1="0" x2="1" y2="1">
  <stop offset="0" stop-color="#0a1f38"/><stop offset="0.55" stop-color="#0b2540"/><stop offset="1" stop-color="#0d3a66"/>
</linearGradient>
<radialGradient id="glow" cx="0.5" cy="0.5" r="0.5">
  <stop offset="0" stop-color="#0a7ef0" stop-opacity="0.55"/><stop offset="1" stop-color="#0a7ef0" stop-opacity="0"/>
</radialGradient>
<radialGradient id="glowCyan" cx="0.5" cy="0.5" r="0.5">
  <stop offset="0" stop-color="#6fc6ff" stop-opacity="0.5"/><stop offset="1" stop-color="#6fc6ff" stop-opacity="0"/>
</radialGradient>
<radialGradient id="glowAmber" cx="0.5" cy="0.5" r="0.5">
  <stop offset="0" stop-color="#f5a623" stop-opacity="0.55"/><stop offset="1" stop-color="#f5a623" stop-opacity="0"/>
</radialGradient>
<linearGradient id="screen" x1="0" y1="0" x2="1" y2="1">
  <stop offset="0" stop-color="#0a6ed1"/><stop offset="1" stop-color="#0a7ef0"/>
</linearGradient>
<linearGradient id="lightbody" x1="0" y1="0" x2="0" y2="1">
  <stop offset="0" stop-color="#f4f6f9"/><stop offset="1" stop-color="#d5e2ef"/>
</linearGradient>
</defs>
<rect width="1600" height="900" fill="url(#bg)"/>
<g><circle cx="100" cy="80" r="2.2" fill="#3d5d80" opacity="0.35"/><circle cx="100" cy="205" r="2.2" fill="#3d5d80" opacity="0.35"/><circle cx="100" cy="330" r="2.2" fill="#3d5d80" opacity="0.35"/><circle cx="100" cy="455" r="2.2" fill="#3d5d80" opacity="0.35"/><circle cx="100" cy="580" r="2.2" fill="#3d5d80" opacity="0.35"/><circle cx="100" cy="705" r="2.2" fill="#3d5d80" opacity="0.35"/><circle cx="100" cy="830" r="2.2" fill="#3d5d80" opacity="0.35"/><circle cx="225" cy="80" r="2.2" fill="#3d5d80" opacity="0.35"/><circle cx="225" cy="205" r="2.2" fill="#3d5d80" opacity="0.35"/><circle cx="225" cy="330" r="2.2" fill="#3d5d80" opacity="0.35"/><circle cx="225" cy="455" r="2.2" fill="#3d5d80" opacity="0.35"/><circle cx="225" cy="580" r="2.2" fill="#3d5d80" opacity="0.35"/><circle cx="225" cy="705" r="2.2" fill="#3d5d80" opacity="0.35"/><circle cx="225" cy="830" r="2.2" fill="#3d5d80" opacity="0.35"/><circle cx="350" cy="80" r="2.2" fill="#3d5d80" opacity="0.35"/><circle cx="350" cy="205" r="2.2" fill="#3d5d80" opacity="0.35"/><circle cx="350" cy="330" r="2.2" fill="#3d5d80" opacity="0.35"/><circle cx="350" cy="455" r="2.2" fill="#3d5d80" opacity="0.35"/><circle cx="350" cy="580" r="2.2" fill="#3d5d80" opacity="0.35"/><circle cx="350" cy="705" r="2.2" fill="#3d5d80" opacity="0.35"/><circle cx="350" cy="830" r="2.2" fill="#3d5d80" opacity="0.35"/><circle cx="475" cy="80" r="2.2" fill="#3d5d80" opacity="0.35"/><circle cx="475" cy="205" r="2.2" fill="#3d5d80" opacity="0.35"/><circle cx="475" cy="330" r="2.2" fill="#3d5d80" opacity="0.35"/><circle cx="475" cy="455" r="2.2" fill="#3d5d80" opacity="0.35"/><circle cx="475" cy="580" r="2.2" fill="#3d5d80" opacity="0.35"/><circle cx="475" cy="705" r="2.2" fill="#3d5d80" opacity="0.35"/><circle cx="475" cy="830" r="2.2" fill="#3d5d80" opacity="0.35"/><circle cx="600" cy="80" r="2.2" fill="#3d5d80" opacity="0.35"/><circle cx="600" cy="205" r="2.2" fill="#3d5d80" opacity="0.35"/><circle cx="600" cy="330" r="2.2" fill="#3d5d80" opacity="0.35"/><circle cx="600" cy="455" r="2.2" fill="#3d5d80" opacity="0.35"/><circle cx="600" cy="580" r="2.2" fill="#3d5d80" opacity="0.35"/><circle cx="600" cy="705" r="2.2" fill="#3d5d80" opacity="0.35"/><circle cx="600" cy="830" r="2.2" fill="#3d5d80" opacity="0.35"/><circle cx="725" cy="80" r="2.2" fill="#3d5d80" opacity="0.35"/><circle cx="725" cy="205" r="2.2" fill="#3d5d80" opacity="0.35"/><circle cx="725" cy="330" r="2.2" fill="#3d5d80" opacity="0.35"/><circle cx="725" cy="455" r="2.2" fill="#3d5d80" opacity="0.35"/><circle cx="725" cy="580" r="2.2" fill="#3d5d80" opacity="0.35"/><circle cx="725" cy="705" r="2.2" fill="#3d5d80" opacity="0.35"/><circle cx="725" cy="830" r="2.2" fill="#3d5d80" opacity="0.35"/><circle cx="850" cy="80" r="2.2" fill="#3d5d80" opacity="0.35"/><circle cx="850" cy="205" r="2.2" fill="#3d5d80" opacity="0.35"/><circle cx="850" cy="330" r="2.2" fill="#3d5d80" opacity="0.35"/><circle cx="850" cy="455" r="2.2" fill="#3d5d80" opacity="0.35"/><circle cx="850" cy="580" r="2.2" fill="#3d5d80" opacity="0.35"/><circle cx="850" cy="705" r="2.2" fill="#3d5d80" opacity="0.35"/><circle cx="850" cy="830" r="2.2" fill="#3d5d80" opacity="0.35"/><circle cx="975" cy="80" r="2.2" fill="#3d5d80" opacity="0.35"/><circle cx="975" cy="205" r="2.2" fill="#3d5d80" opacity="0.35"/><circle cx="975" cy="330" r="2.2" fill="#3d5d80" opacity="0.35"/><circle cx="975" cy="455" r="2.2" fill="#3d5d80" opacity="0.35"/><circle cx="975" cy="580" r="2.2" fill="#3d5d80" opacity="0.35"/><circle cx="975" cy="705" r="2.2" fill="#3d5d80" opacity="0.35"/><circle cx="975" cy="830" r="2.2" fill="#3d5d80" opacity="0.35"/><circle cx="1100" cy="80" r="2.2" fill="#3d5d80" opacity="0.35"/><circle cx="1100" cy="205" r="2.2" fill="#3d5d80" opacity="0.35"/><circle cx="1100" cy="330" r="2.2" fill="#3d5d80" opacity="0.35"/><circle cx="1100" cy="455" r="2.2" fill="#3d5d80" opacity="0.35"/><circle cx="1100" cy="580" r="2.2" fill="#3d5d80" opacity="0.35"/><circle cx="1100" cy="705" r="2.2" fill="#3d5d80" opacity="0.35"/><circle cx="1100" cy="830" r="2.2" fill="#3d5d80" opacity="0.35"/><circle cx="1225" cy="80" r="2.2" fill="#3d5d80" opacity="0.35"/><circle cx="1225" cy="205" r="2.2" fill="#3d5d80" opacity="0.35"/><circle cx="1225" cy="330" r="2.2" fill="#3d5d80" opacity="0.35"/><circle cx="1225" cy="455" r="2.2" fill="#3d5d80" opacity="0.35"/><circle cx="1225" cy="580" r="2.2" fill="#3d5d80" opacity="0.35"/><circle cx="1225" cy="705" r="2.2" fill="#3d5d80" opacity="0.35"/><circle cx="1225" cy="830" r="2.2" fill="#3d5d80" opacity="0.35"/><circle cx="1350" cy="80" r="2.2" fill="#3d5d80" opacity="0.35"/><circle cx="1350" cy="205" r="2.2" fill="#3d5d80" opacity="0.35"/><circle cx="1350" cy="330" r="2.2" fill="#3d5d80" opacity="0.35"/><circle cx="1350" cy="455" r="2.2" fill="#3d5d80" opacity="0.35"/><circle cx="1350" cy="580" r="2.2" fill="#3d5d80" opacity="0.35"/><circle cx="1350" cy="705" r="2.2" fill="#3d5d80" opacity="0.35"/><circle cx="1350" cy="830" r="2.2" fill="#3d5d80" opacity="0.35"/><circle cx="1475" cy="80" r="2.2" fill="#3d5d80" opacity="0.35"/><circle cx="1475" cy="205" r="2.2" fill="#3d5d80" opacity="0.35"/><circle cx="1475" cy="330" r="2.2" fill="#3d5d80" opacity="0.35"/><circle cx="1475" cy="455" r="2.2" fill="#3d5d80" opacity="0.35"/><circle cx="1475" cy="580" r="2.2" fill="#3d5d80" opacity="0.35"/><circle cx="1475" cy="705" r="2.2" fill="#3d5d80" opacity="0.35"/><circle cx="1475" cy="830" r="2.2" fill="#3d5d80" opacity="0.35"/></g>
<ellipse cx="800" cy="450" rx="620" ry="330" fill="url(#glow)"/>
<g>
<rect x="180" y="360" width="360" height="180" rx="88" fill="url(#lightbody)"/>
<ellipse cx="255" cy="560" rx="72" ry="86" fill="url(#lightbody)"/>
<ellipse cx="465" cy="560" rx="72" ry="86" fill="url(#lightbody)"/>
<circle cx="285" cy="440" r="34" fill="#0b2540"/><circle cx="285" cy="440" r="21" fill="#16324f"/>
<circle cx="452" cy="416" r="13" fill="#0a6ed1"/><circle cx="452" cy="466" r="13" fill="#16324f"/>
<circle cx="427" cy="441" r="13" fill="#16324f"/><circle cx="477" cy="441" r="13" fill="#16324f"/>
</g>
<g>
<rect x="1120" y="220" width="290" height="500" rx="42" fill="#10202f" stroke="#2a4a6e" stroke-width="6"/>
<rect x="1140" y="240" width="250" height="460" rx="26" fill="url(#screen)" opacity="0.92"/>
</g>
<g stroke="#6fc6ff" fill="none" stroke-linecap="round">
<path d="M700 380 A 130 130 0 0 1 700 520" stroke-width="13" opacity="0.9"/>
<path d="M770 330 A 200 200 0 0 1 770 570" stroke-width="12" opacity="0.55"/>
<path d="M845 280 A 275 275 0 0 1 845 620" stroke-width="11" opacity="0.3"/>
</g>
<circle cx="660" cy="450" r="13" fill="#6fc6ff"/>
<circle cx="960" cy="450" r="9" fill="#6fc6ff" opacity="0.7"/>
</svg>