<svg xmlns="http://www.w3.org/2000/svg" viewBox="0 0 1600 900" width="1600" height="900">
<defs>
<linearGradient id="bg" x1="0" y1="0" x2="1" y2="1">
  <stop offset="0" stop-color="#0a1f38"/><stop offset="0.55" stop-color="#0b2540"/><stop offset="1" stop-color="#0d3a66"/>
</linearGradient>
<radialGradient id="glow" cx="0.5" cy="0.5" r="0.5">
  <stop offset="0" stop-color="#0a7ef0" stop-opacity="0.55"/><stop offset="1" stop-color="#0a7ef0" stop-opacity="0"/>
</radialGradient>
<radialGradient id="glowCyan" cx="0.5" cy="0.5" r="0.5">
  <stop offset="0" stop-color="#6fc6ff" stop-opacity="0.5"/><stop offset="1" stop-color="#6fc6ff" stop-opacity="0"/>
</radialGradient>
<radialGradient id="glowAmber" cx="0.5" cy="0.5" r="0.5">
  <stop offset="0" stop-color="#f5a623" stop-opacity="0.55"/><stop offset="1" stop-color="#f5a623" stop-opacity="0"/>
</radialGradient>
<linearGradient id="screen" x1="0" y1="0" x2="1" y2="1">
  <stop offset="0" stop-color="#0a6ed1"/><stop offset="1" stop-color="#0a7ef0"/>
</linearGradient>
<linearGradient id="lightbody" x1="0" y1="0" x2="0" y2="1">
  <stop offset="0" stop-color="#f4f6f9"/><stop offset="1" stop-color="#d5e2ef"/>
</linearGradient>
</defs>
<rect width="1600" height="900" fill="url(#bg)"/>
<g><circle cx="100" cy="80" r="2.2" fill="#3d5d80" opacity="0.35"/><circle cx="100" cy="205" r="2.2" fill="#3d5d80" opacity="0.35"/><circle cx="100" cy="330" r="2.2" fill="#3d5d80" opacity="0.35"/><circle cx="100" cy="455" r="2.2" fill="#3d5d80" opacity="0.35"/><circle cx="100" cy="580" r="2.2" fill="#3d5d80" opacity="0.35"/><circle cx="100" cy="705" r="2.2" fill="#3d5d80" opacity="0.35"/><circle cx="100" cy="830" r="2.2" fill="#3d5d80" opacity="0.35"/><circle cx="225" cy="80" r="2.2" fill="#3d5d80" opacity="0.35"/><circle cx="225" cy="205" r="2.2" fill="#3d5d80" opacity="0.35"/><circle cx="225" cy="330" r="2.2" fill="#3d5d80" opacity="0.35"/><circle cx="225" cy="455" r="2.2" fill="#3d5d80" opacity="0.35"/><circle cx="225" cy="580" r="2.2" fill="#3d5d80" opacity="0.35"/><circle cx="225" cy="705" r="2.2" fill="#3d5d80" opacity="0.35"/><circle cx="225" cy="830" r="2.2" fill="#3d5d80" opacity="0.35"/><circle cx="350" cy="80" r="2.2" fill="#3d5d80" opacity="0.35"/><circle cx="350" cy="205" r="2.2" fill="#3d5d80" opacity="0.35"/><circle cx="350" cy="330" r="2.2" fill="#3d5d80" opacity="0.35"/><circle cx="350" cy="455" r="2.2" fill="#3d5d80" opacity="0.35"/><circle cx="350" cy="580" r="2.2" fill="#3d5d80" opacity="0.35"/><circle cx="350" cy="705" r="2.2" fill="#3d5d80" opacity="0.35"/><circle cx="350" cy="830" r="2.2" fill="#3d5d80" opacity="0.35"/><circle cx="475" cy="80" r="2.2" fill="#3d5d80" opacity="0.35"/><circle cx="475" cy="205" r="2.2" fill="#3d5d80" opacity="0.35"/><circle cx="475" cy="330" r="2.2" fill="#3d5d80" opacity="0.35"/><circle cx="475" cy="455" r="2.2" fill="#3d5d80" opacity="0.35"/><circle cx="475" cy="580" r="2.2" fill="#3d5d80" opacity="0.35"/><circle cx="475" cy="705" r="2.2" fill="#3d5d80" opacity="0.35"/><circle cx="475" cy="830" r="2.2" fill="#3d5d80" opacity="0.35"/><circle cx="600" cy="80" r="2.2" fill="#3d5d80" opacity="0.35"/><circle cx="600" cy="205" r="2.2" fill="#3d5d80" opacity="0.35"/><circle cx="600" cy="330" r="2.2" fill="#3d5d80" opacity="0.35"/><circle cx="600" cy="455" r="2.2" fill="#3d5d80" opacity="0.35"/><circle cx="600" cy="580" r="2.2" fill="#3d5d80" opacity="0.35"/><circle cx="600" cy="705" r="2.2" fill="#3d5d80" opacity="0.35"/><circle cx="600" cy="830" r="2.2" fill="#3d5d80" opacity="0.35"/><circle cx="725" cy="80" r="2.2" fill="#3d5d80" opacity="0.35"/><circle cx="725" cy="205" r="2.2" fill="#3d5d80" opacity="0.35"/><circle cx="725" cy="330" r="2.2" fill="#3d5d80" opacity="0.35"/><circle cx="725" cy="455" r="2.2" fill="#3d5d80" opacity="0.35"/><circle cx="725" cy="580" r="2.2" fill="#3d5d80" opacity="0.35"/><circle cx="725" cy="705" r="2.2" fill="#3d5d80" opacity="0.35"/><circle cx="725" cy="830" r="2.2" fill="#3d5d80" opacity="0.35"/><circle cx="850" cy="80" r="2.2" fill="#3d5d80" opacity="0.35"/><circle cx="850" cy="205" r="2.2" fill="#3d5d80" opacity="0.35"/><circle cx="850" cy="330" r="2.2" fill="#3d5d80" opacity="0.35"/><circle cx="850" cy="455" r="2.2" fill="#3d5d80" opacity="0.35"/><circle cx="850" cy="580" r="2.2" fill="#3d5d80" opacity="0.35"/><circle cx="850" cy="705" r="2.2" fill="#3d5d80" opacity="0.35"/><circle cx="850" cy="830" r="2.2" fill="#3d5d80" opacity="0.35"/><circle cx="975" cy="80" r="2.2" fill="#3d5d80" opacity="0.35"/><circle cx="975" cy="205" r="2.2" fill="#3d5d80" opacity="0.35"/><circle cx="975" cy="330" r="2.2" fill="#3d5d80" opacity="0.35"/><circle cx="975" cy="455" r="2.2" fill="#3d5d80" opacity="0.35"/><circle cx="975" cy="580" r="2.2" fill="#3d5d80" opacity="0.35"/><circle cx="975" cy="705" r="2.2" fill="#3d5d80" opacity="0.35"/><circle cx="975" cy="830" r="2.2" fill="#3d5d80" opacity="0.35"/><circle cx="1100" cy="80" r="2.2" fill="#3d5d80" opacity="0.35"/><circle cx="1100" cy="205" r="2.2" fill="#3d5d80" opacity="0.35"/><circle cx="1100" cy="330" r="2.2" fill="#3d5d80" opacity="0.35"/><circle cx="1100" cy="455" r="2.2" fill="#3d5d80" opacity="0.35"/><circle cx="1100" cy="580" r="2.2" fill="#3d5d80" opacity="0.35"/><circle cx="1100" cy="705" r="2.2" fill="#3d5d80" opacity="0.35"/><circle cx="1100" cy="830" r="2.2" fill="#3d5d80" opacity="0.35"/><circle cx="1225" cy="80" r="2.2" fill="#3d5d80" opacity="0.35"/><circle cx="1225" cy="205" r="2.2" fill="#3d5d80" opacity="0.35"/><circle cx="1225" cy="330" r="2.2" fill="#3d5d80" opacity="0.35"/><circle cx="1225" cy="455" r="2.2" fill="#3d5d80" opacity="0.35"/><circle cx="1225" cy="580" r="2.2" fill="#3d5d80" opacity="0.35"/><circle cx="1225" cy="705" r="2.2" fill="#3d5d80" opacity="0.35"/><circle cx="1225" cy="830" r="2.2" fill="#3d5d80" opacity="0.35"/><circle cx="1350" cy="80" r="2.2" fill="#3d5d80" opacity="0.35"/><circle cx="1350" cy="205" r="2.2" fill="#3d5d80" opacity="0.35"/><circle cx="1350" cy="330" r="2.2" fill="#3d5d80" opacity="0.35"/><circle cx="1350" cy="455" r="2.2" fill="#3d5d80" opacity="0.35"/><circle cx="1350" cy="580" r="2.2" fill="#3d5d80" opacity="0.35"/><circle cx="1350" cy="705" r="2.2" fill="#3d5d80" opacity="0.35"/><circle cx="1350" cy="830" r="2.2" fill="#3d5d80" opacity="0.35"/><circle cx="1475" cy="80" r="2.2" fill="#3d5d80" opacity="0.35"/><circle cx="1475" cy="205" r="2.2" fill="#3d5d80" opacity="0.35"/><circle cx="1475" cy="330" r="2.2" fill="#3d5d80" opacity="0.35"/><circle cx="1475" cy="455" r="2.2" fill="#3d5d80" opacity="0.35"/><circle cx="1475" cy="580" r="2.2" fill="#3d5d80" opacity="0.35"/><circle cx="1475" cy="705" r="2.2" fill="#3d5d80" opacity="0.35"/><circle cx="1475" cy="830" r="2.2" fill="#3d5d80" opacity="0.35"/></g>
<ellipse cx="800" cy="450" rx="560" ry="320" fill="url(#glow)"/>
<rect x="596" y="196" width="408" height="568" rx="58" fill="none" stroke="#d5e2ef" stroke-width="18" opacity="0.9"/>
<rect x="640" y="240" width="320" height="480" rx="40" fill="#10202f" stroke="#2a4a6e" stroke-width="6"/>
<rect x="662" y="262" width="276" height="436" rx="24" fill="url(#screen)" opacity="0.9"/>
<g fill="url(#lightbody)">
<path d="M430 330 h120 v70 h-64 v160 h64 v70 h-120 a36 36 0 0 1 -36 -36 v-228 a36 36 0 0 1 36 -36 Z"/>
<path d="M1170 330 h-120 v70 h64 v160 h-64 v70 h120 a36 36 0 0 0 36 -36 v-228 a36 36 0 0 0 -36 -36 Z"/>
</g>
<circle cx="1035" cy="480" r="95" fill="url(#glowAmber)"/>
<g stroke="#f5a623" stroke-width="10" stroke-linecap="round">
<line x1="1022" y1="430" x2="1022" y2="530"/>
<line x1="1048" y1="444" x2="1048" y2="516" opacity="0.6"/>
</g>
</svg>