<svg xmlns="http://www.w3.org/2000/svg" viewBox="0 0 1600 900" width="1600" height="900">
<defs>
<linearGradient id="bg" x1="0" y1="0" x2="1" y2="1">
  <stop offset="0" stop-color="#0a1f38"/><stop offset="0.55" stop-color="#0b2540"/><stop offset="1" stop-color="#0d3a66"/>
</linearGradient>
<radialGradient id="glow" cx="0.5" cy="0.5" r="0.5">
  <stop offset="0" stop-color="#0a7ef0" stop-opacity="0.55"/><stop offset="1" stop-color="#0a7ef0" stop-opacity="0"/>
</radialGradient>
<radialGradient id="glowCyan" cx="0.5" cy="0.5" r="0.5">
  <stop offset="0" stop-color="#6fc6ff" stop-opacity="0.5"/><stop offset="1" stop-color="#6fc6ff" stop-opacity="0"/>
</radialGradient>
<radialGradient id="glowAmber" cx="0.5" cy="0.5" r="0.5">
  <stop offset="0" stop-color="#f5a623" stop-opacity="0.55"/><stop offset="1" stop-color="#f5a623" stop-opacity="0"/>
</radialGradient>
<linearGradient id="screen" x1="0" y1="0" x2="1" y2="1">
  <stop offset="0" stop-color="#0a6ed1"/><stop offset="1" stop-color="#0a7ef0"/>
</linearGradient>
<linearGradient id="lightbody" x1="0" y1="0" x2="0" y2="1">
  <stop offset="0" stop-color="#f4f6f9"/><stop offset="1" stop-color="#d5e2ef"/>
</linearGradient>
</defs>
<rect width="1600" height="900" fill="url(#bg)"/>
<g><circle cx="100" cy="80" r="2.2" fill="#3d5d80" opacity="0.35"/><circle cx="100" cy="205" r="2.2" fill="#3d5d80" opacity="0.35"/><circle cx="100" cy="330" r="2.2" fill="#3d5d80" opacity="0.35"/><circle cx="100" cy="455" r="2.2" fill="#3d5d80" opacity="0.35"/><circle cx="100" cy="580" r="2.2" fill="#3d5d80" opacity="0.35"/><circle cx="100" cy="705" r="2.2" fill="#3d5d80" opacity="0.35"/><circle cx="100" cy="830" r="2.2" fill="#3d5d80" opacity="0.35"/><circle cx="225" cy="80" r="2.2" fill="#3d5d80" opacity="0.35"/><circle cx="225" cy="205" r="2.2" fill="#3d5d80" opacity="0.35"/><circle cx="225" cy="330" r="2.2" fill="#3d5d80" opacity="0.35"/><circle cx="225" cy="455" r="2.2" fill="#3d5d80" opacity="0.35"/><circle cx="225" cy="580" r="2.2" fill="#3d5d80" opacity="0.35"/><circle cx="225" cy="705" r="2.2" fill="#3d5d80" opacity="0.35"/><circle cx="225" cy="830" r="2.2" fill="#3d5d80" opacity="0.35"/><circle cx="350" cy="80" r="2.2" fill="#3d5d80" opacity="0.35"/><circle cx="350" cy="205" r="2.2" fill="#3d5d80" opacity="0.35"/><circle cx="350" cy="330" r="2.2" fill="#3d5d80" opacity="0.35"/><circle cx="350" cy="455" r="2.2" fill="#3d5d80" opacity="0.35"/><circle cx="350" cy="580" r="2.2" fill="#3d5d80" opacity="0.35"/><circle cx="350" cy="705" r="2.2" fill="#3d5d80" opacity="0.35"/><circle cx="350" cy="830" r="2.2" fill="#3d5d80" opacity="0.35"/><circle cx="475" cy="80" r="2.2" fill="#3d5d80" opacity="0.35"/><circle cx="475" cy="205" r="2.2" fill="#3d5d80" opacity="0.35"/><circle cx="475" cy="330" r="2.2" fill="#3d5d80" opacity="0.35"/><circle cx="475" cy="455" r="2.2" fill="#3d5d80" opacity="0.35"/><circle cx="475" cy="580" r="2.2" fill="#3d5d80" opacity="0.35"/><circle cx="475" cy="705" r="2.2" fill="#3d5d80" opacity="0.35"/><circle cx="475" cy="830" r="2.2" fill="#3d5d80" opacity="0.35"/><circle cx="600" cy="80" r="2.2" fill="#3d5d80" opacity="0.35"/><circle cx="600" cy="205" r="2.2" fill="#3d5d80" opacity="0.35"/><circle cx="600" cy="330" r="2.2" fill="#3d5d80" opacity="0.35"/><circle cx="600" cy="455" r="2.2" fill="#3d5d80" opacity="0.35"/><circle cx="600" cy="580" r="2.2" fill="#3d5d80" opacity="0.35"/><circle cx="600" cy="705" r="2.2" fill="#3d5d80" opacity="0.35"/><circle cx="600" cy="830" r="2.2" fill="#3d5d80" opacity="0.35"/><circle cx="725" cy="80" r="2.2" fill="#3d5d80" opacity="0.35"/><circle cx="725" cy="205" r="2.2" fill="#3d5d80" opacity="0.35"/><circle cx="725" cy="330" r="2.2" fill="#3d5d80" opacity="0.35"/><circle cx="725" cy="455" r="2.2" fill="#3d5d80" opacity="0.35"/><circle cx="725" cy="580" r="2.2" fill="#3d5d80" opacity="0.35"/><circle cx="725" cy="705" r="2.2" fill="#3d5d80" opacity="0.35"/><circle cx="725" cy="830" r="2.2" fill="#3d5d80" opacity="0.35"/><circle cx="850" cy="80" r="2.2" fill="#3d5d80" opacity="0.35"/><circle cx="850" cy="205" r="2.2" fill="#3d5d80" opacity="0.35"/><circle cx="850" cy="330" r="2.2" fill="#3d5d80" opacity="0.35"/><circle cx="850" cy="455" r="2.2" fill="#3d5d80" opacity="0.35"/><circle cx="850" cy="580" r="2.2" fill="#3d5d80" opacity="0.35"/><circle cx="850" cy="705" r="2.2" fill="#3d5d80" opacity="0.35"/><circle cx="850" cy="830" r="2.2" fill="#3d5d80" opacity="0.35"/><circle cx="975" cy="80" r="2.2" fill="#3d5d80" opacity="0.35"/><circle cx="975" cy="205" r="2.2" fill="#3d5d80" opacity="0.35"/><circle cx="975" cy="330" r="2.2" fill="#3d5d80" opacity="0.35"/><circle cx="975" cy="455" r="2.2" fill="#3d5d80" opacity="0.35"/><circle cx="975" cy="580" r="2.2" fill="#3d5d80" opacity="0.35"/><circle cx="975" cy="705" r="2.2" fill="#3d5d80" opacity="0.35"/><circle cx="975" cy="830" r="2.2" fill="#3d5d80" opacity="0.35"/><circle cx="1100" cy="80" r="2.2" fill="#3d5d80" opacity="0.35"/><circle cx="1100" cy="205" r="2.2" fill="#3d5d80" opacity="0.35"/><circle cx="1100" cy="330" r="2.2" fill="#3d5d80" opacity="0.35"/><circle cx="1100" cy="455" r="2.2" fill="#3d5d80" opacity="0.35"/><circle cx="1100" cy="580" r="2.2" fill="#3d5d80" opacity="0.35"/><circle cx="1100" cy="705" r="2.2" fill="#3d5d80" opacity="0.35"/><circle cx="1100" cy="830" r="2.2" fill="#3d5d80" opacity="0.35"/><circle cx="1225" cy="80" r="2.2" fill="#3d5d80" opacity="0.35"/><circle cx="1225" cy="205" r="2.2" fill="#3d5d80" opacity="0.35"/><circle cx="1225" cy="330" r="2.2" fill="#3d5d80" opacity="0.35"/><circle cx="1225" cy="455" r="2.2" fill="#3d5d80" opacity="0.35"/><circle cx="1225" cy="580" r="2.2" fill="#3d5d80" opacity="0.35"/><circle cx="1225" cy="705" r="2.2" fill="#3d5d80" opacity="0.35"/><circle cx="1225" cy="830" r="2.2" fill="#3d5d80" opacity="0.35"/><circle cx="1350" cy="80" r="2.2" fill="#3d5d80" opacity="0.35"/><circle cx="1350" cy="205" r="2.2" fill="#3d5d80" opacity="0.35"/><circle cx="1350" cy="330" r="2.2" fill="#3d5d80" opacity="0.35"/><circle cx="1350" cy="455" r="2.2" fill="#3d5d80" opacity="0.35"/><circle cx="1350" cy="580" r="2.2" fill="#3d5d80" opacity="0.35"/><circle cx="1350" cy="705" r="2.2" fill="#3d5d80" opacity="0.35"/><circle cx="1350" cy="830" r="2.2" fill="#3d5d80" opacity="0.35"/><circle cx="1475" cy="80" r="2.2" fill="#3d5d80" opacity="0.35"/><circle cx="1475" cy="205" r="2.2" fill="#3d5d80" opacity="0.35"/><circle cx="1475" cy="330" r="2.2" fill="#3d5d80" opacity="0.35"/><circle cx="1475" cy="455" r="2.2" fill="#3d5d80" opacity="0.35"/><circle cx="1475" cy="580" r="2.2" fill="#3d5d80" opacity="0.35"/><circle cx="1475" cy="705" r="2.2" fill="#3d5d80" opacity="0.35"/><circle cx="1475" cy="830" r="2.2" fill="#3d5d80" opacity="0.35"/></g>
<ellipse cx="800" cy="700" rx="420" ry="260" fill="url(#glowCyan)"/>
<rect x="640" y="110" width="320" height="560" rx="48" fill="#10202f" stroke="#2a4a6e" stroke-width="6"/>
<rect x="662" y="132" width="276" height="516" rx="30" fill="url(#screen)" opacity="0.92"/>
<rect x="748" y="152" width="104" height="26" rx="13" fill="#10202f"/>
<rect x="756" y="676" width="88" height="16" rx="8" fill="#061525" stroke="#2a4a6e" stroke-width="3"/>
<circle cx="800" cy="686" r="60" fill="url(#glowCyan)"/>
<line x1="800" y1="706" x2="800" y2="756" stroke="#6fc6ff" stroke-width="5" stroke-dasharray="2 14" stroke-linecap="round"/>
<rect x="752" y="758" width="96" height="42" rx="21" fill="url(#lightbody)"/>
<rect x="770" y="768" width="60" height="22" rx="11" fill="#9fb4c9"/>
<path d="M800 800 C800 850 760 850 700 862" stroke="#d5e2ef" stroke-width="9" fill="none" stroke-linecap="round"/>
</svg>